<?xml version="1.0" encoding="UTF-8"?>
<svg width="113px" height="76px" viewBox="0 0 113 76" version="1.1" xmlns="http://www.w3.org/2000/svg" xmlns:xlink="http://www.w3.org/1999/xlink">
    <!-- Generator: Sketch 52.6 (67491) - http://www.bohemiancoding.com/sketch -->
    <title>LOGO---VIPSGAS</title>
    <desc>Created with Sketch.</desc>
    <g id="Page-1" stroke="none" stroke-width="1" fill="none" fill-rule="evenodd">
        <g id="vips" transform="translate(-71.000000, -48.000000)">
            <g id="MAIN-MENU" transform="translate(0.000000, 37.000000)">
                <g id="LOGO---VIPSGAS" transform="translate(71.000000, 11.000000)">
                    <polygon id="Fill-1" fill="#E3390F" points="0.191756444 24.1772889 12.370064 24.1772889 18.2925582 41.5489298 24.4110311 24.1772889 36.2167698 24.1772889 23.2540409 51.5965351 12.8897689 51.5965351"></polygon>
                    <path d="M78.0619307,44.007952 L89.6714542,43.020864 C90.1520107,44.2635822 90.8186151,45.1537618 91.6816036,45.6824853 C92.5444907,46.2201938 93.6917529,46.48464 95.1330169,46.48464 C96.7019609,46.48464 97.9177582,46.1848622 98.7806453,45.5767609 C99.4474524,45.1361298 99.7808391,44.5719733 99.7808391,43.9021262 C99.7808391,43.1441867 99.3395324,42.5625333 98.4669849,42.1483164 C97.8294969,41.8574222 96.1527342,41.4960676 93.4366631,41.0642524 C89.3773173,40.420752 86.5533262,39.8390649 84.9746542,39.2926418 C83.3960498,38.7461849 82.0625707,37.8295911 80.9838773,36.5427591 C79.8954898,35.2559947 79.35616,33.7840604 79.35616,32.1271253 C79.35616,30.3202844 79.9445351,28.7603591 81.1113884,27.4558613 C82.2782756,26.1426827 83.8862667,25.1643431 85.9356658,24.5210116 C87.9849636,23.8775787 90.7303538,23.5515556 94.1820711,23.5515556 C97.8197351,23.5515556 100.506521,23.8071182 102.241956,24.3006116 C103.977559,24.8029884 105.418958,25.57856 106.575982,26.6274613 C107.733006,27.6762951 108.694018,29.0952658 109.46861,30.8845084 L98.3786898,31.8715964 C98.0845529,30.9902329 97.6138596,30.3468 96.9372907,29.9324818 C96.0155289,29.377344 94.9075502,29.1040818 93.6034578,29.1040818 C92.2895022,29.1040818 91.3187964,29.3155982 90.720592,29.7385973 C90.1127609,30.1617316 89.8185227,30.6729244 89.8185227,31.2723111 C89.8185227,31.9509742 90.201056,32.4532498 90.9657849,32.7970062 C91.7306151,33.1407289 93.3975147,33.4492213 95.9666187,33.7312996 C99.8494756,34.1277831 102.742036,34.67424 104.634503,35.3794187 C106.5368,36.084496 107.98786,37.0891822 108.988155,38.4024622 C109.998009,39.7069262 110.49819,41.1435289 110.49819,42.7123716 C110.49819,44.2988124 109.968622,45.8412071 108.899792,47.339488 C107.840892,48.8377689 106.164062,50.0277262 103.879502,50.9089884 C101.585113,51.7991342 98.4669849,52.2398667 94.5252196,52.2398667 C88.9556693,52.2398667 84.984416,51.5259733 82.6214578,50.0981867 C80.2582969,48.6704 78.7384658,46.634512 78.0619307,44.007952" id="Fill-2" fill="#151616"></path>
                    <path d="M46.4918684,62.0318418 L46.4918684,24.1772889 L57.4346524,24.1772889 L57.4346524,28.2314329 C58.9545511,26.5216693 60.3371431,25.3670436 61.6019858,24.7677582 C63.3081013,23.9569564 65.1907058,23.5515556 67.2596284,23.5515556 C71.338768,23.5515556 74.4960782,24.9616427 76.7315929,27.7643876 C78.9574471,30.5670987 80.0753227,34.039792 80.0753227,38.1733476 C80.0753227,42.7299698 78.859424,46.2113778 76.4276942,48.6175378 C73.9959982,51.0147804 70.91712,52.2134524 67.2106169,52.2134524 C65.4064107,52.2134524 63.7591698,51.9402916 62.2785209,51.3938347 C60.797872,50.8384942 59.4643929,50.0188089 58.2975058,48.9347449 L58.2975058,62.0318418 L46.4918684,62.0318418 Z M58.2190062,37.9617298 C58.2190062,40.1299591 58.7191876,41.7428142 59.7389049,42.791648 C60.7489618,43.8404818 62.0334293,44.3692729 63.5826133,44.3692729 C64.9455804,44.3692729 66.0830809,43.8669973 67.0047413,42.8533262 C67.9263342,41.84864 68.3872658,40.1387413 68.3872658,37.7326151 C68.3872658,35.5116249 67.9067769,33.8810364 66.945968,32.84112 C65.9947858,31.7922187 64.8180693,31.2723111 63.4453067,31.2723111 C61.9452356,31.2723111 60.6999164,31.8010347 59.7095182,32.8498347 C58.7093244,33.8986684 58.2190062,35.6085333 58.2190062,37.9617298 Z" id="Fill-3" fill="#151616" fill-rule="nonzero"></path>
                    <path d="M72.5048107,55.338944 L78.2990844,55.338944 L78.2990844,69.0381973 L78.3146898,69.6816302 C78.3146898,70.5908604 78.0967893,71.4580373 77.6664942,72.2834649 C77.2357262,73.1086222 76.6650507,73.7755307 75.949232,74.2837511 C75.2335147,74.7966667 74.3255342,75.1650133 73.230864,75.3887911 C72.1311947,75.6172302 70.8708782,75.7337636 69.4546436,75.7337636 C66.2124498,75.7337636 63.9819004,75.2955307 62.7731627,74.4188622 C61.5644249,73.5470578 60.9575058,72.3765564 60.9575058,70.91256 C60.9575058,70.7259378 60.9680107,70.4835147 60.9888178,70.1710702 L66.9904871,70.7866364 C67.1411022,71.2900942 67.3743378,71.6352693 67.6908693,71.826384 C68.1473084,72.106064 68.717984,72.2508356 69.4078276,72.2508356 C70.3002027,72.2508356 70.9642062,72.0362453 71.40504,71.6072 C71.8459751,71.1781547 72.0640782,70.4322738 72.0640782,69.3644907 L72.0640782,67.1684284 C71.4571253,67.8118613 70.8500036,68.282656 70.2430507,68.5764889 C69.2886258,69.0288071 68.2615449,69.2571787 67.1567076,69.2571787 C64.9986453,69.2571787 63.2555431,68.4085458 61.9276036,66.7159076 C60.9888178,65.5130471 60.5165707,63.9231271 60.5165707,61.95064 C60.5165707,59.6892516 61.1237262,57.9686791 62.3374293,56.7843627 C63.5564693,55.5999449 65.1438898,55.0078542 67.1098916,55.0078542 C68.3704107,55.0078542 69.4026596,55.1990702 70.2171093,55.5813671 C71.0366933,55.9636978 71.799328,56.5977404 72.5048107,57.4837991 L72.5048107,55.338944 Z M66.6844604,62.3701938 C66.6844604,63.4193991 66.9334027,64.1981458 67.4315911,64.7016711 C67.9294756,65.2052978 68.5830756,65.4618062 69.3923236,65.4618062 C70.1601262,65.4618062 70.8085244,65.1959076 71.3271822,64.6738044 C71.8511431,64.1514987 72.1105227,63.3588018 72.1105227,62.3050027 C72.1105227,61.2466098 71.8356053,60.4400302 71.2909049,59.8804676 C70.7463058,59.3209049 70.0772018,59.041056 69.2832551,59.041056 C68.4949831,59.041056 67.8618862,59.2975644 67.3951111,59.8103787 C66.9232693,60.3232942 66.6844604,61.1813173 66.6844604,62.3701938 Z M84.7401689,60.034224 L78.8318276,59.4746951 C79.0546258,58.5467858 79.3763591,57.81472 79.7964871,57.2831929 C80.2167164,56.7516996 80.818704,56.2900249 81.6121778,55.8985067 C82.1776516,55.6140302 82.9607893,55.3947787 83.9518631,55.2408871 C84.9422951,55.0871307 86.0162933,55.0078542 87.1731147,55.0078542 C89.0250827,55.0078542 90.51904,55.1011147 91.6393813,55.2875342 C92.764992,55.4740551 93.7039804,55.8658436 94.4511111,56.4580356 C94.9803076,56.8682329 95.3950987,57.4463733 95.7011929,58.1970169 C96.0020516,58.952592 96.152464,59.6659111 96.152464,60.3513636 L96.152464,66.7580622 C96.152464,67.4386169 96.2045493,67.975008 96.2978098,68.3619324 C96.3962382,68.7489244 96.6038027,69.2431947 96.9305013,69.8447769 L91.1259929,69.8447769 C90.8925547,69.4717351 90.7422098,69.1872587 90.6692498,68.9915502 C90.5967627,68.7955716 90.529376,68.4878222 90.4565849,68.0682684 C89.6475396,68.7722987 88.8380889,69.2711627 88.0393458,69.5696907 C86.9449458,69.9707004 85.6739893,70.1710702 84.2265778,70.1710702 C82.3020213,70.1710702 80.8392071,69.7700942 79.8379662,68.9681084 C78.8419947,68.1707164 78.3440764,67.1822098 78.3440764,66.0072836 C78.3440764,64.9022773 78.7019858,63.9975396 79.4229724,63.2889156 C80.1441618,62.5753938 81.466832,62.0484942 83.4018933,61.7036231 C85.7256018,61.2838329 87.2301653,60.9901013 87.9202453,60.8223271 C88.6046507,60.654384 89.3361422,60.43064 90.1039449,60.1601476 C90.1039449,59.4746951 89.9483644,58.9992053 89.6370009,58.7239164 C89.3208409,58.4535253 88.7709724,58.3137529 87.9771947,58.3137529 C86.9656178,58.3137529 86.2083538,58.4629156 85.6999307,58.7519858 C85.3056427,58.9804249 84.9839431,59.4094027 84.7401689,60.034224 Z M90.1039449,62.9578258 C89.2532516,63.232912 88.3663147,63.475504 87.4479982,63.6852978 C86.1926471,63.9835556 85.3937351,64.282016 85.0616658,64.5711538 C84.7142951,64.874208 84.543008,65.2144853 84.543008,65.5969173 C84.543008,66.0353529 84.7142951,66.3896142 85.0515324,66.6692942 C85.3937351,66.9445831 85.8919236,67.0843556 86.5506578,67.0843556 C87.2405351,67.0843556 87.8787662,66.9351929 88.4751129,66.6367324 C89.066528,66.3336107 89.4866898,65.965264 89.735632,65.5362187 C89.9845742,65.1026471 90.1039449,64.5385244 90.1039449,63.8484444 L90.1039449,62.9578258 Z M95.8342773,65.8301529 L101.976226,65.3078471 C102.23037,65.965264 102.583179,66.4363289 103.039618,66.7159076 C103.496057,67.0004853 104.10301,67.1403591 104.865611,67.1403591 C105.695666,67.1403591 106.338896,66.9818062 106.795335,66.6601067 C107.148076,66.4268711 107.324532,66.1286133 107.324532,65.774048 C107.324532,65.373072 107.090891,65.065424 106.629317,64.8461387 C106.291979,64.6924836 105.405278,64.5012676 103.96827,64.2726258 C101.820544,63.9323484 100.326587,63.6245991 99.4914649,63.3355289 C98.6562756,63.0464587 97.9506916,62.5614098 97.3800498,61.8807538 C96.8044089,61.1999627 96.5191893,60.4213511 96.5191893,59.544784 C96.5191893,58.5888391 96.83008,57.7634791 97.4475378,57.0734329 C98.064928,56.3787591 98.9156551,55.8610471 99.999888,55.5207698 C101.084053,55.1803911 102.536363,55.0078542 104.362389,55.0078542 C106.286811,55.0078542 107.70818,55.1429653 108.62653,55.4042364 C109.544644,55.6698649 110.307177,56.0802311 110.919298,56.6352 C111.53152,57.1899662 112.039943,57.9406098 112.449735,58.8873671 L106.58267,59.4094027 C106.426988,58.9432018 106.178046,58.6028907 105.820238,58.3836391 C105.33269,58.0899751 104.746409,57.9454062 104.056363,57.9454062 C103.361317,57.9454062 102.847625,58.0573458 102.531397,58.2811911 C102.209664,58.5049689 102.053982,58.7754276 102.053982,59.0923644 C102.053982,59.4514222 102.25648,59.7171182 102.660935,59.8990453 C103.065559,60.0808711 103.947598,60.2440178 105.306546,60.3933831 C107.360809,60.6031769 108.891145,60.8922471 109.892217,61.2651876 C110.898423,61.6382969 111.666428,62.1697902 112.195422,62.8645653 C112.729618,63.5548142 112.994334,64.3146453 112.994334,65.1447004 C112.994334,65.9838418 112.714283,66.8000818 112.148809,67.592576 C111.588469,68.3853742 110.701465,69.0147218 109.492761,69.481024 C108.278855,69.9520213 106.629317,70.1850542 104.543911,70.1850542 C101.597746,70.1850542 99.496464,69.80752 98.2464836,69.0519787 C96.9963004,68.29664 96.1921867,67.2196356 95.8342773,65.8301529 Z" id="Fill-4" fill="#E3390F" fill-rule="nonzero"></path>
                    <path d="M44.4790507,24.2977404 L44.5143822,24.2977404 L44.5143822,51.5965351 L32.8674329,51.5965351 L32.8674329,35.7110827 L38.3616249,24.3353689 C38.4492444,24.90976 38.5156853,25.5681227 38.5583804,25.8973884 C38.6551876,26.6419182 38.7549671,27.4150916 38.930848,28.1427662 C39.151248,29.0552391 39.558,30.0246951 40.5347182,30.2147627 C40.8372996,30.27384 40.9173529,30.2681991 41.2061191,30.1924356 C42.6276907,29.8209476 43.1163876,28.1904604 43.3810364,26.841072 C43.4645351,26.4153707 43.5308747,25.9868996 43.6050844,25.5593067 C43.6237636,25.4519609 43.6468338,25.3017511 43.6758489,25.1619449 C43.9796462,24.9361742 44.2456462,24.6374436 44.4790507,24.2977404" id="Fill-5" fill="#151616"></path>
                    <path d="M42.7436498,24.0894667 C42.1113298,24.08288 42.3170702,28.4280196 40.8864124,28.8018044 C39.8363289,29.0770933 39.9013511,22.776288 39.1700284,22.5682169 C37.2271982,22.0170987 36.5835964,21.9884889 36.0580142,20.2029618 C35.4468729,18.1267769 35.4483929,17.7088107 36.3324249,16.1947556 C36.3974471,13.9786631 36.5764018,10.1780551 37.1787609,7.43793422 C37.8858649,4.22252622 39.5630667,2.21795022 39.7435751,3.41871644 C39.901824,4.47471111 36.7491413,9.05491022 37.5949707,12.2603876 C37.6682347,12.537872 38.0797493,12.5686773 38.4644782,13.0752089 C39.0029636,13.7838329 39.1019662,14.9994276 39.2778471,14.3591698 C39.8910151,12.1314916 40.0684498,8.21090489 41.9312942,8.34963022 C44.1273902,8.51203378 43.6373422,17.2205191 44.2696622,14.9697707 C45.0891787,12.0549849 43.5264836,8.65298844 42.7564516,5.72232711 C42.64664,5.303888 41.6471218,5.57363733 41.395984,5.23285333 C41.1535609,4.90358756 41.8297244,3.851984 42.2191147,3.902144 C43.2433582,4.03475556 44.6342596,7.89704178 44.699856,5.70912 C44.7390382,4.38107911 42.8663982,0.565608889 42.4084053,1.03687644 C41.6672196,1.79778844 40.2175111,2.06926044 41.0700622,0.875080889 C43.0680178,-1.924016 44.9195129,2.84719644 45.938656,6.53272356 C46.5951947,8.90794311 45.2439147,22.8539431 42.7436498,24.0894667" id="Fill-6" fill="#151616"></path>
                </g>
            </g>
        </g>
    </g>
</svg>